<svg width="26" height="26" viewBox="0 0 26 26" fill="none" xmlns="http://www.w3.org/2000/svg">
<path d="M14.7839 13L22.8693 4.91518C23.0433 4.74093 23.0433 4.45861 22.8693 4.28437L21.7161 3.13063C21.6325 3.04719 21.5187 3 21.4005 3C21.2821 3 21.1685 3.04719 21.0849 3.13063L12.9998 11.2157L4.91462 3.13063C4.74712 2.96313 4.45068 2.96334 4.2836 3.13063L3.13068 4.28437C2.95644 4.45861 2.95644 4.74093 3.13068 4.91518L11.2158 13L3.13068 21.0848C2.95644 21.2591 2.95644 21.5414 3.13068 21.7156L4.28381 22.8694C4.36745 22.9528 4.48102 23 4.59942 23C4.71783 23 4.83119 22.9528 4.91483 22.8694L13 14.7843L21.0851 22.8694C21.1688 22.9528 21.2825 23 21.4007 23C21.5189 23 21.6327 22.9528 21.7164 22.8694L22.8695 21.7156C23.0435 21.5414 23.0435 21.2591 22.8695 21.0848L14.7839 13Z" fill="black"/>
</svg>
