<svg width="22" height="30" viewBox="0 0 22 30" fill="none" xmlns="http://www.w3.org/2000/svg">
<path d="M10.643 5.14497H11.2483L10.7439 0.0504409L10.6935 0H10.5421V0.0504409L9.9873 5.14497H10.0377H10.643ZM13.5182 5.49806V5.44762L14.3757 0.907937V0.857496L14.2243 0.807055L14.1739 0.857496L12.3076 5.19541L13.5182 5.49806ZM12.6102 7.46526C12.9633 7.46526 13.3164 7.16261 13.3164 6.75908C13.3164 6.35556 13.0137 6.05291 12.6102 6.05291C12.2067 6.05291 11.9041 6.35556 11.9041 6.75908C11.9041 7.16261 12.2067 7.46526 12.6102 7.46526ZM10.643 7.21305C10.9961 7.21305 11.3492 6.91041 11.3492 6.50688C11.3492 6.10335 11.0466 5.8007 10.643 5.8007C10.2395 5.8007 9.93686 6.10335 9.93686 6.50688C9.88642 6.96085 10.2395 7.21305 10.643 7.21305ZM7.76789 5.49806L8.92804 5.19541H8.97848L7.06172 0.857496L7.01128 0.807055L6.9104 0.857496L6.85996 0.907937L7.71745 5.44762L7.76789 5.49806ZM7.91921 6.70864C7.91921 7.11217 8.22186 7.41481 8.62539 7.41481C8.97848 7.41481 9.33157 7.11217 9.33157 6.70864C9.33157 6.30511 9.02892 6.00247 8.62539 6.00247C8.2723 6.05291 7.91921 6.35555 7.91921 6.70864ZM10.643 8.42363C4.64056 8.42363 0 13.0642 0 19.0667C0 25.1196 4.64056 29.7097 10.643 29.7097C16.6959 29.7097 21.2861 25.1196 21.2861 19.0667C21.2861 13.0642 16.6959 8.42363 10.643 8.42363ZM10.643 26.3302C6.80952 26.3302 3.78306 23.2028 3.78306 19.1171C3.78306 15.0314 6.75908 11.9041 10.643 11.9041C14.527 11.9041 17.503 15.0314 17.503 19.1171C17.503 23.1524 14.527 26.3302 10.643 26.3302Z" fill="#27251F"/>
</svg>
